# MagicaVoxel @ Ephtracy

# group
o 

# material
mtllib golfclub.mtl
usemtl palette

# normals
vn -1 0 0
vn 1 0 0
vn 0 0 1
vn 0 0 -1
vn 0 -1 0
vn 0 1 0

# texcoords
vt 0.869141 0.5
vt 0.978516 0.5
vt 0.982422 0.5

# verts
v 4.4 0 0
v 4.4 0 -0.1
v 4.4 0.1 0
v 4.4 0.1 -0.1
v 4.4 0.2 0
v 4.4 0.2 -0.1
v 4.5 0.2 0
v 4.5 0.2 -0.1
v 4.5 0.3 0
v 4.5 0.3 -0.1
v 4.7 0.3 0
v 4.7 0.3 -0.1
v 4.7 0.9 0
v 4.7 0.9 -0.1
v 4.7 1.3 0
v 4.7 1.3 -0.1
v 4.7 1.4 0
v 4.7 1.4 -0.1
v 4.7 2.1 0
v 4.7 2.1 -0.1
v 4.7 0 0
v 4.7 0 -0.1
v 4.7 0.1 0
v 4.7 0.1 -0.1
v 4.8 0.1 0
v 4.8 0.1 -0.1
v 4.8 0.2 0
v 4.8 0.2 -0.1
v 4.8 0.9 0
v 4.8 0.9 -0.1
v 4.8 1.3 0
v 4.8 1.3 -0.1
v 4.8 1.4 0
v 4.8 1.4 -0.1
v 4.8 2.1 0
v 4.8 2.1 -0.1
v 4.4 0 0
v 4.4 0.1 0
v 4.4 0.2 0
v 4.5 0.2 0
v 4.5 0.3 0
v 4.6 0.1 0
v 4.6 0.2 0
v 4.7 0 0
v 4.7 0.1 0
v 4.7 0.3 0
v 4.7 0.9 0
v 4.7 1.3 0
v 4.7 1.4 0
v 4.7 2.1 0
v 4.8 0.1 0
v 4.8 0.2 0
v 4.8 0.9 0
v 4.8 1.3 0
v 4.8 1.4 0
v 4.8 2.1 0
v 4.4 0 -0.1
v 4.4 0.1 -0.1
v 4.4 0.2 -0.1
v 4.5 0.2 -0.1
v 4.5 0.3 -0.1
v 4.6 0.1 -0.1
v 4.6 0.2 -0.1
v 4.7 0 -0.1
v 4.7 0.1 -0.1
v 4.7 0.3 -0.1
v 4.7 0.9 -0.1
v 4.7 1.3 -0.1
v 4.7 1.4 -0.1
v 4.7 2.1 -0.1
v 4.8 0.1 -0.1
v 4.8 0.2 -0.1
v 4.8 0.9 -0.1
v 4.8 1.3 -0.1
v 4.8 1.4 -0.1
v 4.8 2.1 -0.1
v 4.4 0 0
v 4.7 0 0
v 4.4 0 -0.1
v 4.7 0 -0.1
v 4.7 0.1 0
v 4.8 0.1 0
v 4.7 0.1 -0.1
v 4.8 0.1 -0.1
v 4.4 0.2 0
v 4.5 0.2 0
v 4.4 0.2 -0.1
v 4.5 0.2 -0.1
v 4.5 0.3 0
v 4.7 0.3 0
v 4.5 0.3 -0.1
v 4.7 0.3 -0.1
v 4.7 2.1 0
v 4.8 2.1 0
v 4.7 2.1 -0.1
v 4.8 2.1 -0.1

# faces
f 3/3/1 2/3/1 1/3/1
f 4/3/1 2/3/1 3/3/1
f 5/2/1 4/2/1 3/2/1
f 6/2/1 4/2/1 5/2/1
f 9/2/1 8/2/1 7/2/1
f 10/2/1 8/2/1 9/2/1
f 13/2/1 12/2/1 11/2/1
f 14/2/1 12/2/1 13/2/1
f 15/3/1 14/3/1 13/3/1
f 16/3/1 14/3/1 15/3/1
f 17/2/1 16/2/1 15/2/1
f 18/2/1 16/2/1 17/2/1
f 19/1/1 18/1/1 17/1/1
f 20/1/1 18/1/1 19/1/1
f 21/3/2 22/3/2 23/3/2
f 23/3/2 22/3/2 24/3/2
f 25/3/2 26/3/2 27/3/2
f 27/3/2 26/3/2 28/3/2
f 27/2/2 28/2/2 29/2/2
f 29/2/2 28/2/2 30/2/2
f 29/3/2 30/3/2 31/3/2
f 31/3/2 30/3/2 32/3/2
f 31/2/2 32/2/2 33/2/2
f 33/2/2 32/2/2 34/2/2
f 33/1/2 34/1/2 35/1/2
f 35/1/2 34/1/2 36/1/2
f 40/2/3 39/2/3 38/2/3
f 42/3/3 38/3/3 37/3/3
f 42/2/3 41/2/3 40/2/3
f 42/2/3 40/2/3 38/2/3
f 43/2/3 41/2/3 42/2/3
f 44/3/3 42/3/3 37/3/3
f 44/3/3 43/3/3 42/3/3
f 45/3/3 43/3/3 44/3/3
f 46/2/3 41/2/3 43/2/3
f 51/3/3 43/3/3 45/3/3
f 52/2/3 46/2/3 43/2/3
f 52/3/3 43/3/3 51/3/3
f 52/2/3 47/2/3 46/2/3
f 53/3/3 48/3/3 47/3/3
f 53/2/3 47/2/3 52/2/3
f 54/2/3 49/2/3 48/2/3
f 54/3/3 48/3/3 53/3/3
f 55/1/3 50/1/3 49/1/3
f 55/2/3 49/2/3 54/2/3
f 56/1/3 50/1/3 55/1/3
f 58/2/4 59/2/4 60/2/4
f 57/3/4 58/3/4 62/3/4
f 60/2/4 61/2/4 62/2/4
f 58/2/4 60/2/4 62/2/4
f 62/2/4 61/2/4 63/2/4
f 57/3/4 62/3/4 64/3/4
f 62/3/4 63/3/4 64/3/4
f 64/3/4 63/3/4 65/3/4
f 63/2/4 61/2/4 66/2/4
f 65/3/4 63/3/4 71/3/4
f 63/2/4 66/2/4 72/2/4
f 71/3/4 63/3/4 72/3/4
f 66/2/4 67/2/4 72/2/4
f 67/3/4 68/3/4 73/3/4
f 72/2/4 67/2/4 73/2/4
f 68/2/4 69/2/4 74/2/4
f 73/3/4 68/3/4 74/3/4
f 69/1/4 70/1/4 75/1/4
f 74/2/4 69/2/4 75/2/4
f 75/1/4 70/1/4 76/1/4
f 79/3/5 78/3/5 77/3/5
f 80/3/5 78/3/5 79/3/5
f 83/3/5 82/3/5 81/3/5
f 84/3/5 82/3/5 83/3/5
f 85/2/6 86/2/6 87/2/6
f 87/2/6 86/2/6 88/2/6
f 89/2/6 90/2/6 91/2/6
f 91/2/6 90/2/6 92/2/6
f 93/1/6 94/1/6 95/1/6
f 95/1/6 94/1/6 96/1/6
